<?xml version="1.0" encoding="UTF-8" standalone="no"?>
<svg
   xmlns:dc="http://purl.org/dc/elements/1.1/"
   xmlns:cc="http://creativecommons.org/ns#"
   xmlns:rdf="http://www.w3.org/1999/02/22-rdf-syntax-ns#"
   xmlns:svg="http://www.w3.org/2000/svg"
   xmlns="http://www.w3.org/2000/svg"
   xmlns:sodipodi="http://sodipodi.sourceforge.net/DTD/sodipodi-0.dtd"
   xmlns:inkscape="http://www.inkscape.org/namespaces/inkscape"
   width="73.449997mm"
   height="73.449997mm"
   viewBox="0 0 73.449996 73.449997"
   version="1.1"
   id="svg8"
   inkscape:version="1.0.1 (3bc2e813f5, 2020-09-07)"
   sodipodi:docname="juliaup-icon.svg">
  <defs
     id="defs2" />
  <sodipodi:namedview
     id="base"
     pagecolor="#ffffff"
     bordercolor="#666666"
     borderopacity="1.0"
     inkscape:pageopacity="0.0"
     inkscape:pageshadow="2"
     inkscape:zoom="2.8"
     inkscape:cx="231.77026"
     inkscape:cy="150.02243"
     inkscape:document-units="mm"
     inkscape:current-layer="layer1"
     inkscape:document-rotation="0"
     showgrid="false"
     showguides="false"
     fit-margin-top="0"
     fit-margin-left="0"
     fit-margin-right="0"
     fit-margin-bottom="0"
     inkscape:window-width="1920"
     inkscape:window-height="1017"
     inkscape:window-x="-8"
     inkscape:window-y="-8"
     inkscape:window-maximized="1" />
  <metadata
     id="metadata5">
    <rdf:RDF>
      <cc:Work
         rdf:about="">
        <dc:format>image/svg+xml</dc:format>
        <dc:type
           rdf:resource="http://purl.org/dc/dcmitype/StillImage" />
        <dc:title />
      </cc:Work>
    </rdf:RDF>
  </metadata>
  <g
     inkscape:label="Layer 1"
     inkscape:groupmode="layer"
     id="layer1"
     transform="translate(83.040672,-88.783173)">
    <ellipse
       style="fill:#ffffff;fill-opacity:1;stroke-width:0"
       id="path871"
       cx="-46.329735"
       cy="125.44686"
       rx="29.340403"
       ry="29.860117" />
    <path
       style="fill:#000000;stroke-width:1"
       id="path847"
       d="" />
    <path
       style="fill:#000000;stroke-width:1"
       id="path857"
       d="" />
    <path
       style="fill:#000000;stroke-width:1"
       id="path851"
       d="" />
    <path
       style="fill:#000000;stroke-width:1"
       id="path849"
       d="" />
    <g
       id="g865"
       transform="matrix(-0.61347431,0,0,-0.61347431,35.671442,279.46297)"
       style="stroke-width:1.63005">
      <path
         style="fill:#a1a1a1;fill-opacity:1;stroke-width:1.63005"
         d="m 127.71885,310.03307 c -12.21248,-1.50892 -22.14834,-5.5507 -31.088535,-12.64641 -12.589572,-9.99217 -20.412146,-24.35717 -22.113774,-40.60866 -0.43458,-4.15047 -0.180477,-11.6983 0.529764,-15.73605 1.61747,-9.19537 5.059535,-17.43515 10.306149,-24.67137 9.456144,-13.04206 22.998056,-21.39064 39.059106,-24.07988 4.12936,-0.69142 14.1269,-0.69142 18.25625,0 16.06105,2.68924 29.60297,11.03782 39.05911,24.07988 13.63645,18.80762 14.81286,44.62952 2.9441,64.6223 -9.05335,15.25025 -23.6021,25.31657 -41.07717,28.42141 -2.61382,0.4644 -4.52779,0.60287 -9.12812,0.66041 -3.20146,0.04 -6.23755,0.0213 -6.74688,-0.0416 z m 30.6495,-30.15285 c 1.37705,-0.96452 1.24655,-2.91783 -0.24654,-3.68994 -1.11579,-0.57699 -48.04846,-0.57699 -49.16424,0 -1.49309,0.77211 -1.6236,2.72542 -0.24654,3.68994 0.54379,0.38089 3.04585,0.42358 24.82866,0.42358 21.7828,0 24.28486,-0.0427 24.82866,-0.42358 z m -12.92241,-21.93371 11.77172,-11.77396 h -6.8119 -6.81191 v -12.96459 -12.96459 h -10.05416 -10.05417 v 12.96459 12.96459 h -6.8119 -6.81191 l 11.77173,11.77396 c 6.47445,6.47567 11.83226,11.77396 11.90625,11.77396 0.074,0 5.4318,-5.29829 11.90625,-11.77396 z"
         id="path861" />
      <path
         style="fill:#8a8a8a;fill-opacity:1;stroke-width:1.63005"
         d="m 129.96781,305.55035 c -8.05471,-0.78301 -14.02779,-2.39769 -20.42911,-5.52251 -16.177032,-7.89689 -27.252333,-23.02289 -30.13402,-41.15529 -0.612873,-3.85637 -0.618646,-11.84608 -0.01139,-15.76454 2.06351,-13.31531 8.804444,-25.49977 18.679628,-33.76406 8.084612,-6.76579 17.303572,-10.9535 27.639732,-12.55533 3.91846,-0.60725 11.90816,-0.60148 15.76454,0.0114 24.15257,3.83845 42.34497,22.03025 46.19903,46.19754 0.60537,3.79602 0.60537,12.07898 0,15.875 -1.64925,10.34177 -5.8245,19.50475 -12.54415,27.52927 -8.23984,9.83991 -20.58905,16.68809 -33.60332,18.63451 -2.71528,0.4061 -9.54665,0.70984 -11.56094,0.51402 z m 28.29857,-25.41091 c 0.52304,-0.20071 1.20247,-1.45739 1.20247,-2.2241 0,-0.30947 -0.34802,-0.91069 -0.77339,-1.33606 l -0.7734,-0.7734 h -24.38237 -24.38237 l -0.7734,0.7734 c -0.42537,0.42537 -0.7734,1.02659 -0.7734,1.33606 0,0.70417 0.67154,2.03138 1.11891,2.21138 0.48709,0.19597 49.02691,0.20844 49.53695,0.0127 z m -12.82044,-22.19293 11.77172,-11.77396 h -6.8119 -6.81191 v -12.96459 -12.96459 h -10.05416 -10.05417 v 12.96459 12.96459 h -6.8119 -6.81191 l 11.77173,11.77396 c 6.47445,6.47567 11.83226,11.77396 11.90625,11.77396 0.074,0 5.4318,-5.29829 11.90625,-11.77396 z"
         id="path853" />
    </g>
  </g>
</svg>
